<mxfile modified="2024-06-09T22:57:34.227Z" host="app.diagrams.net" agent="Mozilla/5.0 (Windows NT 10.0; Win64; x64) AppleWebKit/537.36 (KHTML, like Gecko) Chrome/125.0.0.0 Safari/537.36" etag="zxtbWp-X3u8kLlBBWdpS" version="24.5.2" type="device">
  <diagram id="Ht1M8jgEwFfnCIfOTk4-" name="Page-1">
    <mxGraphModel dx="1050" dy="557" grid="1" gridSize="10" guides="1" tooltips="1" connect="1" arrows="1" fold="1" page="1" pageScale="1" pageWidth="1169" pageHeight="827" math="0" shadow="0">
      <root>
        <mxCell id="0" />
        <mxCell id="1" parent="0" />
        <mxCell id="KTEOEsJsxT6lBaHAp3Ny-5" style="edgeStyle=orthogonalEdgeStyle;rounded=0;orthogonalLoop=1;jettySize=auto;html=1;" edge="1" parent="1" source="UEzPUAAOIrF-is8g5C7q-116" target="KTEOEsJsxT6lBaHAp3Ny-2">
          <mxGeometry relative="1" as="geometry" />
        </mxCell>
        <mxCell id="UEzPUAAOIrF-is8g5C7q-116" value="Angular&lt;br&gt;hosted&lt;br&gt;on S3" style="outlineConnect=0;fontColor=#232F3E;gradientColor=#60A337;gradientDirection=north;fillColor=#277116;strokeColor=#ffffff;dashed=0;verticalLabelPosition=bottom;verticalAlign=top;align=center;html=1;fontSize=12;fontStyle=0;aspect=fixed;shape=mxgraph.aws4.resourceIcon;resIcon=mxgraph.aws4.s3;labelBackgroundColor=#ffffff;" parent="1" vertex="1">
          <mxGeometry x="585.0000000000002" y="247.88" width="78" height="78" as="geometry" />
        </mxCell>
        <mxCell id="KTEOEsJsxT6lBaHAp3Ny-1" value="AWS&lt;br&gt;RDS hosting&lt;br&gt;postgress" style="outlineConnect=0;dashed=0;verticalLabelPosition=bottom;verticalAlign=top;align=center;html=1;shape=mxgraph.aws3.rds;fillColor=#2E73B8;gradientColor=none;" vertex="1" parent="1">
          <mxGeometry x="80" y="250" width="72" height="81" as="geometry" />
        </mxCell>
        <mxCell id="KTEOEsJsxT6lBaHAp3Ny-6" style="edgeStyle=orthogonalEdgeStyle;rounded=0;orthogonalLoop=1;jettySize=auto;html=1;" edge="1" parent="1" source="KTEOEsJsxT6lBaHAp3Ny-2">
          <mxGeometry relative="1" as="geometry">
            <mxPoint x="160" y="286.875" as="targetPoint" />
          </mxGeometry>
        </mxCell>
        <mxCell id="KTEOEsJsxT6lBaHAp3Ny-2" value="API&lt;br&gt;on&lt;br&gt;Elastic&lt;br&gt;Beanstalk" style="sketch=0;outlineConnect=0;fontColor=#232F3E;gradientColor=none;fillColor=#ED7100;strokeColor=none;dashed=0;verticalLabelPosition=bottom;verticalAlign=top;align=center;html=1;fontSize=12;fontStyle=0;aspect=fixed;pointerEvents=1;shape=mxgraph.aws4.application;" vertex="1" parent="1">
          <mxGeometry x="350" y="253.75" width="42.79" height="66.25" as="geometry" />
        </mxCell>
        <mxCell id="KTEOEsJsxT6lBaHAp3Ny-4" style="edgeStyle=orthogonalEdgeStyle;rounded=0;orthogonalLoop=1;jettySize=auto;html=1;exitX=0;exitY=0.5;exitDx=0;exitDy=0;exitPerimeter=0;" edge="1" parent="1" source="KTEOEsJsxT6lBaHAp3Ny-3" target="UEzPUAAOIrF-is8g5C7q-116">
          <mxGeometry relative="1" as="geometry" />
        </mxCell>
        <mxCell id="KTEOEsJsxT6lBaHAp3Ny-3" value="End user&lt;div&gt;&lt;br&gt;&lt;/div&gt;" style="sketch=0;points=[[0,0,0],[0.25,0,0],[0.5,0,0],[0.75,0,0],[1,0,0],[0,1,0],[0.25,1,0],[0.5,1,0],[0.75,1,0],[1,1,0],[0,0.25,0],[0,0.5,0],[0,0.75,0],[1,0.25,0],[1,0.5,0],[1,0.75,0]];outlineConnect=0;fontColor=#232F3E;fillColor=#01A88D;strokeColor=#ffffff;dashed=0;verticalLabelPosition=bottom;verticalAlign=top;align=center;html=1;fontSize=12;fontStyle=0;aspect=fixed;shape=mxgraph.aws4.resourceIcon;resIcon=mxgraph.aws4.desktop_and_app_streaming;" vertex="1" parent="1">
          <mxGeometry x="900" y="247.88" width="78" height="78" as="geometry" />
        </mxCell>
      </root>
    </mxGraphModel>
  </diagram>
</mxfile>
